#!OML:ASF H:\BabyWalks\Project 1\Capture day 1\Session 1\baby.ASF
:FULLY-SPECIFIED
:DEGREES
693
root -35.85 17.6216 -0.877267 -432.087 81.1456 -472.014
lowerback 49.0818 5.04843 -4.71951
upperback 15.8123 6.55253 4.47903
thorax -3.50041 3.29618 4.40416
lowerneck -13.2015 -0.956619 1.92538
upperneck -14.501 -1.4956 -7.03816
head -2.54288 -0.371159 -2.69739
rclavicle 2.28602e-014 2.73795e-015
rhumerus 50.6695 20.2837 -45.6339
rradius 30.7254
rwrist 22.0295
rhand -15.0177 -9.35306
rfingers 7.12502
rthumb 11.1477 -39.0369
lclavicle 2.28602e-014 2.73795e-015
lhumerus 47.435 -24.7344 26.6622
lradius 48.1555
lwrist -1.78947
lhand -6.50619 4.41319
lfingers 7.12502
lthumb 19.3457 33.4709
rfemur -56.1089 -1.83178 26.1096
rtibia 18.2949
rfoot -0.544334 -10.131
rtoes -2.72312
lfemur -62.5877 10.4256 -6.41976
ltibia 27.1479
lfoot -7.25605 3.66655
ltoes 11.7167
694
root -35.8405 17.6156 -0.891881 -432.134 80.9953 -472.418
lowerback 48.8326 5.08673 -4.69792
upperback 15.8571 6.61522 4.52758
thorax -3.43045 3.31959 4.431
lowerneck -12.9339 -0.982684 2.07956
upperneck -14.4028 -1.56748 -7.12411
head -2.55994 -0.419896 -2.75458
rclavicle -4.20305e-014 1.4502e-014
rhumerus 50.2413 19.5275 -47.3415
rradius 30.1869
rwrist 22.8791
rhand -14.9662 -9.51385
rfingers 7.12502
rthumb 11.1973 -39.195
lclavicle -4.20305e-014 1.4502e-014
lhumerus 47.5286 -24.6059 27.3947
lradius 47.9085
lwrist -1.47181
lhand -6.26417 4.8805
lfingers 7.12502
lthumb 19.5784 33.9147
rfemur -56.3934 -1.83063 26.2446
rtibia 18.1624
rfoot -0.47179 -10.1253
rtoes -2.79212
lfemur -63.0499 10.3144 -6.17108
ltibia 27.3726
lfoot -7.38189 3.87555
ltoes 11.4824
695
root -35.8306 17.6114 -0.906557 -432.109 80.8746 -472.708
lowerback 48.5743 5.08338 -4.68167
upperback 15.8931 6.62237 4.52825
thorax -3.35653 3.32066 4.43187
lowerneck -12.7373 -0.993003 2.18845
upperneck -14.2745 -1.60476 -7.16482
head -2.55192 -0.450868 -2.7867
rclavicle -2.30839e-014 -4.55357e-014
rhumerus 49.8118 19.1661 -48.4835
rradius 30.1126
rwrist 23.0258
rhand -15.0142 -9.7151
rfingers 7.12502
rthumb 11.1511 -39.3988
lclavicle -2.30839e-014 -4.55357e-014
lhumerus 47.5235 -24.6247 27.86
lradius 47.8712
lwrist -0.956231
lhand -6.03373 5.26929
lfingers 7.12502
lthumb 19.7999 34.2808
rfemur -56.6221 -1.76805 26.2787
rtibia 18.0167
rfoot -0.38961 -10.2097
rtoes -2.86633
lfemur -63.4456 10.221 -5.975
ltibia 27.5532
lfoot -7.49063 4.05064
ltoes 11.2036
696
root -35.8203 17.6094 -0.921256 -432.069 80.7787 -472.927
lowerback 48.3413 5.03948 -4.66296
upperback 15.9148 6.57824 4.48552
thorax -3.28999 3.30137 4.40463
lowerneck -12.6094 -0.987238 2.24683
upperneck -14.126 -1.60748 -7.16524
head -2.52245 -0.463225 -2.79467
rclavicle 6.16357e-014 2.6808e-014
rhumerus 49.374 19.2067 -49.0802
rradius 30.4539
rwrist 22.5632
rhand -15.0387 -9.83749
rfingers 7.12502
rthumb 11.1275 -39.5225
lclavicle 6.16357e-014 2.6808e-014
lhumerus 47.3777 -24.7691 28.0916
lradius 48.0565
lwrist -0.393019
lhand -5.79651 5.56831
lfingers 7.12502
lthumb 20.028 34.5561
rfemur -56.7594 -1.64824 26.2141
rtibia 17.8233
rfoot -0.290175 -10.3883
rtoes -2.9341
lfemur -63.7514 10.1315 -5.81575
ltibia 27.6827
lfoot -7.58012 4.20612
ltoes 10.9369
697
root -35.8091 17.6101 -0.935619 -432.007 80.7105 -473.066
lowerback 48.1371 4.96392 -4.65027
upperback 15.9246 6.4904 4.40699
thorax -3.23132 3.26434 4.35809
lowerneck -12.5509 -0.967093 2.25327
upperneck -13.96 -1.57881 -7.13126
head -2.4726 -0.458265 -2.78044
rclavicle 2.93207e-015 -4.12478e-015
rhumerus 48.9366 19.6224 -49.1632
rradius 31.1549
rwrist 21.625
rhand -15.0567 -9.8832
rfingers 7.12502
rthumb 11.11 -39.5691
lclavicle 2.93207e-015 -4.12478e-015
lhumerus 47.158 -25.0372 28.0911
lradius 48.357
lwrist 0.134804
lhand -5.64316 5.73227
lfingers 7.12502
lthumb 20.1754 34.7046
rfemur -56.7899 -1.4635 26.0396
rtibia 17.5566
rfoot -0.166035 -10.6715
rtoes -2.98486
lfemur -63.9617 10.0497 -5.7008
ltibia 27.7556
lfoot -7.6539 4.34076
ltoes 10.7246
698
root -35.7934 17.6182 -0.947452 -431.699 80.6548 -472.729
lowerback 48.2133 4.94258 -4.71263
upperback 15.8982 6.4234 4.314
thorax -3.25386 3.23537 4.31133
lowerneck -12.5393 -0.932489 2.2215
upperneck -13.7924 -1.52258 -7.07935
head -2.41235 -0.43753 -2.75258
rclavicle -5.46658e-014 -1.87727e-014
rhumerus 48.4966 20.3446 -48.8233
rradius 32.1531
rwrist 20.3954
rhand -15.0934 -9.87824
rfingers 7.12502
rthumb 11.0747 -39.566
lclavicle -5.46658e-014 -1.87727e-014
lhumerus 46.8599 -25.4141 27.913
lradius 48.7456
lwrist 0.525013
lhand -5.51327 5.78366
lfingers 7.12502
lthumb 20.3002 34.7428
rfemur -56.4936 -1.16823 25.7676
rtibia 17.1868
rfoot -0.0348555 -11.0413
rtoes -3.0316
lfemur -63.8599 10.05 -5.64837
ltibia 27.7704
lfoot -7.73177 4.41781
ltoes 10.8208
699
root -35.7744 17.6322 -0.95755 -431.269 80.6117 -472.097
lowerback 48.4994 4.95567 -4.81837
upperback 15.8398 6.3693 4.20935
thorax -3.34144 3.21216 4.25838
lowerneck -12.5689 -0.885244 2.16796
upperneck -13.6298 -1.44443 -7.02211
head -2.34572 -0.40419 -2.71871
rclavicle -2.15681e-014 -2.21148e-015
rhumerus 48.0326 21.2722 -48.2214
rradius 33.3732
rwrist 19.1024
rhand -15.105 -9.80205
rfingers 7.12502
rthumb 11.0635 -39.4905
lclavicle -2.15681e-014 -2.21148e-015
lhumerus 46.47 -25.8699 27.6471
lradius 49.2363
lwrist 0.715691
lhand -5.43824 5.74131
lfingers 7.12502
lthumb 20.3723 34.6927
rfemur -55.9411 -0.784612 25.4092
rtibia 16.7194
rfoot 0.107348 -11.4953
rtoes -3.0546
lfemur -63.5171 10.0991 -5.64428
ltibia 27.7259
lfoot -7.80448 4.4561
ltoes 11.1534
700
root -35.7519 17.6518 -0.965893 -430.74 80.5744 -471.197
lowerback 48.9927 5.00887 -4.95973
upperback 15.7481 6.33712 4.10023
thorax -3.4943 3.19896 4.19973
lowerneck -12.623 -0.827579 2.10588
upperneck -13.4786 -1.35046 -6.97267
head -2.27846 -0.361447 -2.68596
rclavicle 2.127e-014 2.01518e-014
rhumerus 47.5393 22.3245 -47.4557
rradius 34.7501
rwrist 17.8836
rhand -15.0975 -9.6756
rfingers 7.12502
rthumb 11.0707 -39.3636
lclavicle 2.127e-014 2.01518e-014
lhumerus 45.9752 -26.3867 27.377
lradius 49.8266
lwrist 0.689523
lhand -5.40244 5.6387
lfingers 7.12502
lthumb 20.4067 34.5864
rfemur -55.1386 -0.309587 24.977
rtibia 16.1576
rfoot 0.255992 -12.0336
rtoes -3.04502
lfemur -62.9298 10.1693 -5.64712
ltibia 27.624
lfoot -7.87419 4.49624
ltoes 11.7315
701
root -35.7299 17.6716 -0.974956 -430.363 80.5708 -470.474
lowerback 49.4141 5.01917 -5.06461
upperback 15.6477 6.26937 3.97432
thorax -3.63855 3.17281 4.12255
lowerneck -12.6953 -0.762561 2.03431
upperneck -13.3376 -1.24478 -6.9291
head -2.21145 -0.311467 -2.65347
rclavicle -6.63941e-014 1.09829e-014
rhumerus 46.9968 23.432 -46.6487
rradius 36.2204
rwrist 16.855
rhand -15.0849 -9.52394
rfingers 7.12502
rthumb 11.0829 -39.2113
lclavicle -6.63941e-014 1.09829e-014
lhumerus 45.4279 -26.9746 27.1091
lradius 50.4372
lwrist 0.543864
lhand -5.40324 5.50653
lfingers 7.12502
lthumb 20.4059 34.4543
rfemur -54.3467 0.199167 24.4509
rtibia 15.5507
rfoot 0.4156 -12.6712
rtoes -2.97956
lfemur -62.3461 10.1683 -5.64662
ltibia 27.4656
lfoot -7.9301 4.58306
ltoes 12.2746
702
root -35.7087 17.6911 -0.98481 -430.171 80.5907 -469.97
lowerback 49.7569 4.98306 -5.1169
upperback 15.5414 6.17092 3.8335
thorax -3.77215 3.13645 4.01998
lowerneck -12.7751 -0.690111 1.9674
upperneck -13.2148 -1.12958 -6.89472
head -2.14939 -0.255705 -2.62506
rclavicle 2.98177e-014 -1.46604e-014
rhumerus 46.41 24.5435 -45.8512
rradius 37.7294
rwrist 16.025
rhand -15.0445 -9.34912
rfingers 7.12502
rthumb 11.1218 -39.0344
lclavicle 2.98177e-014 -1.46604e-014
lhumerus 44.8313 -27.6092 26.8904
lradius 51.0812
lwrist 0.343766
lhand -5.35754 5.39834
lfingers 7.12502
lthumb 20.4499 34.3414
rfemur -53.5982 0.729354 23.8569
rtibia 14.9484
rfoot 0.567282 -13.3929
rtoes -2.85785
lfemur -61.7677 10.0555 -5.587
ltibia 27.2535
lfoot -7.97487 4.7701
ltoes 12.749
703
root -35.6899 17.7083 -0.99633 -430.245 80.6493 -469.852
lowerback 49.9018 4.86919 -5.09209
upperback 15.4412 6.02124 3.67396
thorax -3.86601 3.08127 3.88943
lowerneck -12.8516 -0.613669 1.9082
upperneck -13.1073 -1.01017 -6.86723
head -2.09333 -0.197214 -2.60052
rclavicle 8.17005e-014 2.99171e-014
rhumerus 45.7742 25.621 -45.1081
rradius 39.2354
rwrist 15.3607
rhand -14.9758 -9.16201
rfingers 7.12502
rthumb 11.1881 -38.8437
lclavicle 8.17005e-014 2.99171e-014
lhumerus 44.251 -28.3046 26.6859
lradius 51.6768
lwrist 0.215266
lhand -5.36151 5.28743
lfingers 7.12502
lthumb 20.446 34.2309
rfemur -53.0241 1.2472 23.188
rtibia 14.4106
rfoot 0.69206 -14.195
rtoes -2.68576
lfemur -61.303 9.79075 -5.46683
ltibia 26.9903
lfoot -8.00136 5.07769
ltoes 13.0015
704
root -35.6744 17.7219 -1.01008 -430.67 80.7406 -470.24
lowerback 49.7992 4.65849 -4.96454
upperback 15.3539 5.81202 3.49442
thorax -3.9069 3.00403 3.72265
lowerneck -12.921 -0.533243 1.85684
upperneck -13.0196 -0.88653 -6.843
head -2.04527 -0.135863 -2.57864
rclavicle -4.37326e-014 -7.89672e-014
rhumerus 45.083 26.6392 -44.4743
rradius 40.6933
rwrist 14.8629
rhand -14.8999 -8.97359
rfingers 7.12502
rthumb 11.2613 -38.6513
lclavicle -4.37326e-014 -7.89672e-014
lhumerus 43.6715 -29.0353 26.5389
lradius 52.2463
lwrist 0.189784
lhand -5.35396 5.20191
lfingers 7.12502
lthumb 20.4533 34.1446
rfemur -52.6748 1.72331 22.4604
rtibia 13.9529
rfoot 0.780593 -15.063
rtoes -2.47267
lfemur -61.007 9.35641 -5.27018
ltibia 26.6848
lfoot -8.00548 5.51704
ltoes 12.9933
705
root -35.6623 17.732 -1.02569 -431.382 80.867 -471.072
lowerback 49.4535 4.36839 -4.75458
upperback 15.2777 5.55214 3.29948
thorax -3.89915 2.90701 3.5293
lowerneck -12.9808 -0.45186 1.81229
upperneck -12.9403 -0.762363 -6.81524
head -2.00183 -0.0741971 -2.55682
rclavicle -2.78299e-014 -1.08835e-014
rhumerus 44.3344 27.5948 -43.9791
rradius 42.0706
rwrist 14.4962
rhand -14.829 -8.80255
rfingers 7.12502
rthumb 11.3296 -38.4765
lclavicle -2.78299e-014 -1.08835e-014
lhumerus 43.1185 -29.802 26.4384
lradius 52.7521
lwrist 0.316324
lhand -5.35165 5.11885
lfingers 7.12502
lthumb 20.4555 34.0613
rfemur -52.5583 2.15929 21.6668
rtibia 13.5971
rfoot 0.822235 -15.9902
rtoes -2.22656
lfemur -60.8725 8.73365 -4.96449
ltibia 26.3453
lfoot -7.99989 6.12732
ltoes 12.7058
